PathFileType	4	(X/Y/Z)	walk-thru1-2-TP.trc
DataRate	CameraRate	NumFrames	NumMarkers	Units	OrigDataRate	OrigDataStartFrame	OrigNumFrames
120.00	120.00	       4	60	mm	120.00	126	       503
Frame#	Time	Top.Head			Front.Head			Rear.Head			Jaw			C7			R.Clavicle			L.Clavicle			R.Shoulder			L.Shoulder			R.Scapula			L.Scapula			R.Scap.Inf			R.Biceps.Lateral			R.Elbow			R.Elbow.Medial			R.Forearm			R.Ulna			R.Radius			R.Wrist			R.Thumb.M1			R.Thumb.M2			R.Thumb.M3			R.Finger3.M1			R.Finger3.M2			R.Finger3.M3			L.Biceps.Lateral			L.Elbow			L.Elbow.Medial			L.Forearm			L.Ulna			L.Radius			L.Wrist			L.Thumb.M1			L.Thumb.M2			L.Thumb.M3			L.Finger3.M1			L.Finger3.M2			L.Finger3.M3			V.Sacral			R.ASIS			L.ASIS			R.Thigh			R.Thigh.Front			R.Knee			R.Knee.Medial			R.Shank			R.Ankle			R.Ankle.Medial			R.Heel			R.Toe			R.MedFoot			L.Thigh			L.Knee			L.Knee.Medial			L.Shank			L.Ankle			L.Ankle.Medial			L.Heel			L.Toe			L.MedFoot			V_mid_ASIS			V_R_Knee_JC			V_L_Knee_JC			V_R_Elbow_JC			V_L_Elbow_JC			V_R_Ankle_JC			V_L_Ankle_JC			V_R_Wrist_JC			V_L_Wrist_JC			V_R_ScaTrpz_1stMC_JC			V_R_1stMC_1stPP_JC			V_R_1stPP_1stDP_JC			V_R_LunCap_3rdMC_JC			V_R_3rdMC_3rdPP_JC			V_R_3rdPP_3rdMP_JC			V_R_3rdMP_3rdDP_JC			V_L_ScaTrpz_1stMC_JC			V_L_1stMC_1stPP_JC			V_L_1stPP_1stDP_JC			V_L_LunCap_3rdMC_JC			V_L_3rdMC_3rdPP_JC			V_L_3rdPP_3rdMP_JC			V_L_3rdMP_3rdPP_JC			V_ROOT_JC			V_R_Hip_JC			V_L_Hip_JC			V_R_GlenHum_JC			V_L_GlenHum_JC			V_ForeHead_Ctr			V_Vertex			V_Sagit_Lambdoid_Suture			V_R_FrontoTemp			V_L_FrontoTemporal			V_R_ParietalOccip			V_L_ParietalOcciptal			V_R_Temporal			V_L_Temporal			V_mid_FrontRearHead			V_mid_RLGlenHumCtrs			V_C7_vert			V_C1_vert			V_Mid_Hip			
		X1	Y1	Z1	X2	Y2	Z2	X3	Y3	Z3	X4	Y4	Z4	X5	Y5	Z5	X6	Y6	Z6	X7	Y7	Z7	X8	Y8	Z8	X9	Y9	Z9	X10	Y10	Z10	X11	Y11	Z11	X12	Y12	Z12	X13	Y13	Z13	X14	Y14	Z14	X15	Y15	Z15	X16	Y16	Z16	X17	Y17	Z17	X18	Y18	Z18	X19	Y19	Z19	X20	Y20	Z20	X21	Y21	Z21	X22	Y22	Z22	X23	Y23	Z23	X24	Y24	Z24	X25	Y25	Z25	X26	Y26	Z26	X27	Y27	Z27	X28	Y28	Z28	X29	Y29	Z29	X30	Y30	Z30	X31	Y31	Z31	X32	Y32	Z32	X33	Y33	Z33	X34	Y34	Z34	X35	Y35	Z35	X36	Y36	Z36	X37	Y37	Z37	X38	Y38	Z38	X39	Y39	Z39	X40	Y40	Z40	X41	Y41	Z41	X42	Y42	Z42	X43	Y43	Z43	X44	Y44	Z44	X45	Y45	Z45	X46	Y46	Z46	X47	Y47	Z47	X48	Y48	Z48	X49	Y49	Z49	X50	Y50	Z50	X51	Y51	Z51	X52	Y52	Z52	X53	Y53	Z53	X54	Y54	Z54	X55	Y55	Z55	X56	Y56	Z56	X57	Y57	Z57	X58	Y58	Z58	X59	Y59	Z59	X60	Y60	Z60	

126	1.042	-860.60657	-11.11668	1788.51550	-760.45306	-4.46745	1675.15710	-988.00958	-12.62343	1690.23059	-806.03497	-10.56879	1508.28174	-1001.41254	-7.59019	1553.66248	-909.43213	-127.25466	1459.41895	-892.29401	99.26153	1460.81750	-953.02478	-214.79959	1455.64111	-959.14807	196.78778	1470.93896	-1055.34888	-96.44832	1470.57092	-1051.28296	71.94572	1475.34326	-1105.97803	-104.49667	1383.83508	-1008.54797	-271.46176	1278.42554	-1047.92590	-284.91208	1126.81311	-1061.56921	-194.84482	1109.80139	-959.50958	-239.90025	1011.29236	-993.90283	-277.91965	910.47217	-928.89081	-219.80209	882.87799	-936.04974	-260.44653	833.47772	-917.30969	-216.08238	849.29572	-877.83221	-187.13286	808.62231	-840.64856	-186.78708	782.84082	-894.21057	-262.04770	763.49341	-874.67786	-224.55632	711.62976	-881.56805	-177.85960	688.62024	-980.05090	259.00485	1320.69458	-991.53943	300.80276	1145.18750	-1034.33496	236.49062	1126.64697	-918.56525	279.57880	1043.83374	-967.25659	300.56345	951.72125	-894.16040	250.44057	905.68597	-900.34235	283.96762	846.92462	-880.85950	237.41284	842.66748	-879.72058	201.28969	793.79474	-869.71448	205.72733	733.12799	-877.96021	296.62881	774.53473	-883.88025	277.39127	718.73566	-902.65369	256.19125	671.94818	-1095.89392	1.43661	1074.42456	-1007.56073	-190.92921	1019.71899	-996.53644	184.98381	1018.97766	-856.04181	-146.67091	634.42145	-768.23236	-60.60708	581.46082	-809.21033	-117.20856	512.57129	-811.75470	-6.40287	512.70148	-778.57288	-76.14793	332.55960	-852.18231	-106.63335	71.33922	-816.11505	-11.17365	93.42589	-905.26782	-45.76991	42.83190	-668.56927	-68.19449	53.91702	-736.34479	-27.68491	71.29592	-997.63538	176.49786	635.23132	-1004.44104	157.88203	480.60617	-986.92426	40.24645	478.39392	-1083.54138	94.00550	297.07706	-1283.57764	93.47644	126.91343	-1230.84460	5.69655	152.77612	-1332.64429	31.31797	144.13344	-1135.12622	45.82630	42.47014	-1173.79517	21.05353	80.46343																																																																																																																															
127	1.050	-854.07654	-11.27584	1788.35095	-755.13910	-5.36431	1675.05005	-980.70160	-13.14438	1690.64697	-799.23932	-12.43525	1508.84131	-995.84833	-8.54721	1555.08740	-902.13483	-128.85892	1459.37939	-885.61047	97.32047	1462.01086	-944.33527	-214.76196	1455.77454	-952.38043	196.45595	1471.94897	-1050.04944	-95.83495	1471.25134	-1045.16479	71.07294	1475.57422	-1099.80359	-104.76732	1384.53125	-1000.91730	-272.10727	1278.84070	-1040.34021	-286.64038	1126.05420	-1054.56897	-195.60416	1110.48413	-951.64386	-241.27444	1011.46027	-985.13800	-277.56668	910.82599	-919.78125	-223.35634	882.90582	-926.38342	-259.52423	834.22375	-908.80865	-215.26744	849.65546	-870.46246	-187.25014	811.01233	-831.01233	-185.11568	783.81982	-885.05621	-263.18784	764.58539	-864.88892	-223.00044	712.69031	-873.43652	-177.30655	689.69604	-975.69623	258.22580	1322.33191	-986.07275	300.02911	1145.82983	-1028.78186	234.90497	1127.41089	-914.97278	276.76877	1044.22131	-961.87445	299.85278	952.77869	-890.04828	249.82445	905.33215	-897.37128	283.51495	846.80499	-878.23370	237.80231	842.71289	-877.23889	200.19391	793.82886	-868.99493	204.84671	732.42725	-875.98450	296.07693	774.69739	-883.05048	277.16660	718.61255	-901.97382	256.01474	672.10834	-1089.15991	-0.42559	1074.43005	-999.05640	-192.05513	1020.45514	-990.28589	185.41283	1019.66968	-852.47687	-146.89374	632.81860	-762.92645	-60.67498	581.65961	-804.19873	-119.21569	511.57269	-808.22308	-6.33415	512.56757	-776.40845	-75.06509	331.76303	-851.20319	-105.99061	71.04605	-815.16931	-10.30202	92.93590	-905.04321	-45.26961	43.02954	-666.45526	-67.71531	53.26237	-735.95654	-27.21662	70.57432	-987.65576	177.88661	635.76154	-992.95300	160.28136	479.90549	-974.66614	42.15339	477.92545	-1074.91602	96.91246	299.20023	-1279.23254	94.90752	133.26524	-1223.30811	7.06273	156.68367	-1325.34985	31.73232	152.87158	-1134.43286	45.06416	42.33813	-1168.57239	22.44295	80.99569																																																																																																																															
128	1.058	-847.66803	-13.65091	1787.01990	-748.27966	-5.73598	1675.02087	-974.79645	-14.93841	1690.78210	-794.27411	-10.79200	1509.08801	-990.39386	-10.91462	1555.03906	-895.66455	-129.23082	1460.21704	-879.49554	96.88998	1462.67664	-940.24030	-217.23262	1456.17542	-945.22211	195.15417	1472.42017	-1043.81567	-97.67969	1472.45569	-1039.26819	69.64032	1475.96716	-1092.12732	-106.50603	1385.07520	-994.22394	-273.63156	1279.78662	-1032.57898	-287.61938	1126.07288	-1046.72253	-197.52524	1109.61353	-942.49597	-242.39380	1012.33777	-976.63928	-278.96097	911.00458	-910.80719	-223.41991	883.56305	-917.74335	-259.62720	834.38879	-898.56439	-217.31703	849.78015	-860.64276	-187.68571	811.93616	-822.97986	-187.39276	785.32477	-875.54083	-263.68866	764.63879	-854.80206	-225.02538	713.54712	-863.17206	-178.38846	689.70435	-969.29657	257.22168	1322.40100	-982.04285	300.30661	1147.46875	-1023.58215	233.41386	1128.63440	-910.93292	275.61771	1043.72888	-961.28387	299.52658	953.48883	-887.82404	249.85979	905.41064	-895.79114	283.83112	847.76697	-875.52380	238.33269	842.60437	-874.34723	201.04330	793.78369	-865.52399	205.95471	732.48834	-874.19208	297.31619	774.69324	-882.00555	276.20349	718.25507	-900.41058	255.22466	672.13080	-1082.22034	-1.73664	1074.48792	-989.93402	-194.56377	1020.61578	-984.83179	184.04768	1019.34949	-849.44659	-147.65947	631.92706	-758.44067	-60.55348	580.27417	-799.87231	-118.05415	510.73831	-804.54297	-4.80357	512.61383	-773.16113	-75.84470	331.22556	-851.08270	-105.67584	70.98862	-815.19122	-9.92236	92.75024	-905.05786	-45.23329	42.96644	-666.16254	-67.14144	51.80113	-735.70294	-25.64647	70.00433	-976.51245	179.06889	635.20013	-980.61310	163.55255	480.87344	-961.00134	44.50078	476.97607	-1065.17407	99.34726	300.49057	-1273.14172	96.21806	139.51738	-1216.50244	8.64590	160.46811	-1318.71863	33.50163	160.47215	-1134.89380	46.08915	41.78665	-1166.45129	22.72738	81.92036																																																																																																																															
129	1.067	-842.68274	-14.38028	1787.96167	-742.78870	-5.96769	1676.52356	-969.04425	-16.07605	1691.79834	-787.85260	-14.09920	1509.35608	-983.95001	-11.68319	1555.12292	-889.06439	-130.15587	1460.90051	-873.10431	96.29919	1463.08557	-932.61456	-218.46216	1456.96655	-939.33319	192.55525	1472.98181	-1036.47510	-99.77984	1472.05518	-1032.35022	68.33757	1477.12866	-1084.98438	-108.23147	1384.42163	-986.15802	-274.55823	1279.58887	-1024.26746	-288.65552	1126.12512	-1037.45996	-198.62038	1110.38074	-934.76068	-243.77023	1012.49591	-967.81671	-280.21057	912.25067	-901.89990	-222.85709	883.86298	-908.23126	-261.57217	834.52563	-890.74445	-217.61333	851.06500	-852.09137	-187.01370	812.24908	-812.61023	-185.89381	786.59955	-866.02362	-264.00027	766.01056	-846.66577	-224.99800	714.43231	-854.41559	-178.21133	690.39960	-963.21741	256.22629	1322.69287	-977.45490	297.77963	1148.12000	-1018.62579	232.04066	1130.55566	-907.46405	275.56583	1046.06848	-956.71240	298.86801	954.72028	-884.94885	249.34897	906.19971	-893.48297	282.76117	848.09741	-872.80383	237.23296	842.06134	-872.55939	201.49445	793.72510	-863.74585	205.83575	732.16901	-873.60736	296.92325	774.41071	-880.06439	277.03040	718.17719	-899.47070	255.08676	672.46362	-1074.63196	-3.47081	1075.20483	-985.23682	-192.76740	1020.71466	-977.27515	182.33052	1019.04797	-844.93408	-149.17876	630.86188	-753.45557	-60.43854	578.94897	-794.64496	-118.28905	509.73682	-800.90723	-4.71159	512.39917	-771.22229	-73.51855	331.02777	-850.86896	-105.26915	70.75050	-814.92194	-8.99346	92.26625	-904.96136	-44.97670	42.98750	-665.70367	-66.68589	50.71094	-735.28937	-25.36254	69.71783	-966.04974	180.26886	634.94775	-968.19806	165.57329	481.03305	-947.38007	49.08183	475.93509	-1054.76208	103.36490	302.56345	-1267.27808	97.79594	145.51300	-1209.11890	10.21417	165.54478	-1309.50403	33.53846	167.87837	-1133.52087	45.29949	42.99992	-1160.46973	22.33422	82.71011																																																																																																																															
